<svg width="1920" height="1080" viewBox="0 0 1920 1080" xmlns="http://www.w3.org/2000/svg"><rect width="1920" height="1080" fill="#e5f5ff"/><path d="M 0,1080 C 0,1080 0,180 0,180 C 83.94358974358971,183.76923076923077 167.88717948717942,187.53846153846152 289,194 C 410.1128205128206,200.46153846153848 568.3948717948718,209.6153846153846 692,202 C 815.6051282051282,194.3846153846154 904.5333333333331,170 1006,178 C 1107.466666666667,186 1221.471794871795,226.3846153846154 1323,234 C 1424.528205128205,241.6153846153846 1513.5794871794872,216.46153846153845 1611,202 C 1708.4205128205128,187.53846153846155 1814.2102564102565,183.76923076923077 1920,180 C 1920,180 1920,1080 1920,1080 Z" fill="#2b5e91" opacity="0.09999999999999999"/><path d="M 0,1080 C 0,1080 0,360 0,360 C 97.574358974359,396.0153846153846 195.148717948718,432.03076923076924 316,412 C 436.851282051282,391.96923076923076 580.979487179487,315.8923076923077 699,296 C 817.020512820513,276.1076923076923 908.9333333333332,312.4 1000,333 C 1091.0666666666668,353.6 1181.2871794871799,358.50769230769237 1278,367 C 1374.7128205128201,375.49230769230763 1477.9179487179485,387.5692307692308 1586,387 C 1694.0820512820515,386.4307692307692 1807.0410256410257,373.2153846153846 1920,360 C 1920,360 1920,1080 1920,1080 Z" fill="#2b5e91" opacity="0.19999999999999998"/><path d="M 0,1080 C 0,1080 0,540 0,540 C 144.2948717948718,551.9871794871794 288.5897435897436,563.974358974359 379,545 C 469.4102564102564,526.025641025641 505.93589743589735,476.08974358974365 611,482 C 716.0641025641027,487.91025641025635 889.6666666666667,549.6666666666667 1013,564 C 1136.3333333333333,578.3333333333333 1209.3974358974358,545.2435897435898 1292,548 C 1374.6025641025642,550.7564102564102 1466.7435897435898,589.3589743589744 1573,594 C 1679.2564102564102,598.6410256410256 1799.628205128205,569.3205128205128 1920,540 C 1920,540 1920,1080 1920,1080 Z" fill="#2b5e91" opacity="0.3"/><path d="M 0,1080 C 0,1080 0,720 0,720 C 112.47692307692304,764.4717948717948 224.9538461538461,808.9435897435898 340,787 C 455.0461538461539,765.0564102564102 572.6615384615386,676.6974358974359 687,652 C 801.3384615384614,627.3025641025641 912.3999999999999,666.2666666666667 1011,676 C 1109.6000000000001,685.7333333333333 1195.7384615384615,666.2358974358974 1291,655 C 1386.2615384615385,643.7641025641026 1490.646153846154,640.7897435897436 1597,653 C 1703.353846153846,665.2102564102564 1811.676923076923,692.6051282051283 1920,720 C 1920,720 1920,1080 1920,1080 Z" fill="#2b5e91" opacity="0.39999999999999997"/><path d="M 0,1080 C 0,1080 0,900 0,900 C 124.11794871794868,934.9743589743589 248.23589743589736,969.9487179487179 365,956 C 481.76410256410264,942.0512820512821 591.174358974359,879.1794871794872 695,881 C 798.825641025641,882.8205128205128 897.0666666666668,949.3333333333333 1004,950 C 1110.9333333333332,950.6666666666667 1226.5589743589746,885.4871794871794 1330,868 C 1433.4410256410254,850.5128205128206 1524.6974358974358,880.7179487179486 1621,894 C 1717.3025641025642,907.2820512820514 1818.6512820512821,903.6410256410256 1920,900 C 1920,900 1920,1080 1920,1080 Z" fill="#2b5e91" opacity="0.49999999999999994"/></svg>