<svg xmlns="http://www.w3.org/2000/svg" version="1.1" xmlns:xlink="http://www.w3.org/1999/xlink" xmlns:svgjs="http://svgjs.com/svgjs" width="1440" height="560" preserveAspectRatio="none" viewBox="0 0 1440 560"><g mask="url(&quot;#SvgjsMask2800&quot;)" fill="none"><rect width="1440" height="560" x="0" y="0" fill="url(#SvgjsLinearGradient2801)"></rect><path d="M 0,29 C 57.6,67.6 172.8,216.2 288,222 C 403.2,227.8 460.8,65 576,58 C 691.2,51 748.8,189 864,187 C 979.2,185 1036.8,40.2 1152,48 C 1267.2,55.8 1382.4,190.4 1440,226L1440 560L0 560z" fill="rgba(204, 229, 255, 1)"></path><path d="M 0,450 C 96,422 288,300 480,310 C 672,320 768,480.2 960,500 C 1152,519.8 1344,427.2 1440,409L1440 560L0 560z" fill="rgba(172, 213, 255, 1)"></path></g><defs><mask id="SvgjsMask2800"><rect width="1440" height="560" fill="#ffffff"></rect></mask><linearGradient x1="50%" y1="0%" x2="50%" y2="100%" gradientUnits="userSpaceOnUse" id="SvgjsLinearGradient2801"><stop stop-color="rgba(158, 206, 255, 1)" offset="0"></stop><stop stop-color="rgba(224, 243, 255, 1)" offset="1"></stop></linearGradient></defs></svg>